<svg width="215" height="25" viewBox="0 0 215 25" fill="none" xmlns="http://www.w3.org/2000/svg">
<path d="M8.12 24C6.22667 24 4.74667 23.7333 3.68 23.2C2.61333 22.6667 1.86667 21.8667 1.44 20.8C1.01333 19.7333 0.8 18.4133 0.8 16.84V7.92C0.8 5.36 1.37333 3.48 2.52 2.28C3.66667 1.05333 5.53333 0.439998 8.12 0.439998H20.16C22 0.439998 23.4 0.546665 24.36 0.759999C25.3467 0.946666 25.84 1.14667 25.84 1.36L25.04 4.68C24.5867 4.6 23.24 4.52 21 4.44C18.7867 4.33333 15.56 4.28 11.32 4.28H9.28C7.14667 4.28 6.08 5.22667 6.08 7.12V17.32C6.08 18.2267 6.30667 18.9333 6.76 19.44C7.24 19.92 8.08 20.16 9.28 20.16H10.92C15.3467 20.16 18.7733 20.12 21.2 20.04C23.6533 19.9333 25.1733 19.8267 25.76 19.72L27.4 22.36C27.4 22.4933 27.1733 22.6933 26.72 22.96C26.2933 23.2267 25.4933 23.4667 24.32 23.68C23.1467 23.8933 21.4533 24 19.24 24H8.12ZM28.1953 24L39.9153 0.48H47.7953L59.4753 24H53.3153L50.9553 18.92H36.6353L34.0353 24H28.1953ZM38.0753 15H49.4753L43.9953 4.08H43.5953L38.0753 15ZM88.2444 24.4C87.1777 24.4 86.1244 24.24 85.0844 23.92C84.071 23.5733 82.911 22.7467 81.6044 21.44L78.7244 18.56C77.551 17.36 76.2577 16.48 74.8444 15.92C73.4577 15.36 71.711 15.08 69.6044 15.08H68.3644V24H63.0844V3.68L62.6844 0.439998H80.4044C82.111 0.439998 83.4444 0.666665 84.4044 1.12C85.391 1.57333 86.111 2.17333 86.5644 2.92C87.0444 3.64 87.351 4.41333 87.4844 5.24C87.6177 6.06667 87.6844 6.85333 87.6844 7.6V8.36C87.6844 8.94667 87.6044 9.6 87.4444 10.32C87.2844 11.04 86.9777 11.7467 86.5244 12.44C86.071 13.1333 85.4177 13.72 84.5644 14.2C83.7377 14.68 82.6444 14.96 81.2844 15.04C81.631 15.2267 82.071 15.52 82.6044 15.92C83.1377 16.2933 83.6844 16.7067 84.2444 17.16C84.831 17.6133 85.3644 18.0267 85.8444 18.4C86.3244 18.7733 86.6977 19.04 86.9644 19.2C87.9244 19.76 88.7777 20.1467 89.5244 20.36C90.271 20.5733 90.8844 20.6933 91.3644 20.72C91.8444 20.7467 92.1244 20.76 92.2044 20.76L91.4044 24C91.1644 24.08 90.7644 24.16 90.2044 24.24C89.6444 24.3467 88.991 24.4 88.2444 24.4ZM74.3644 11.44C75.3777 11.44 76.2844 11.4267 77.0844 11.4C77.8844 11.3467 78.6044 11.2933 79.2444 11.24C80.4177 11.1067 81.231 10.7867 81.6844 10.28C82.1644 9.74667 82.4044 9.06667 82.4044 8.24V7.32C82.4044 6.46667 82.1777 5.74667 81.7244 5.16C81.271 4.57333 80.4577 4.28 79.2844 4.28H68.3644V11.24C69.5377 11.32 70.6177 11.3733 71.6044 11.4C72.591 11.4267 73.511 11.44 74.3644 11.44ZM95.8094 24V0.48H120.689V4.32H101.089V9.84H116.049V13.8H101.089V20.16H120.849L122.449 23.56C122.449 23.6667 122.089 23.7733 121.369 23.88C120.649 23.96 119.409 24 117.649 24H95.8094ZM126.434 24V0.48H151.314V4.32H131.714V9.84H146.674V13.8H131.714V20.16H151.474L153.074 23.56C153.074 23.6667 152.714 23.7733 151.994 23.88C151.274 23.96 150.034 24 148.274 24H126.434ZM182.619 24.4C181.553 24.4 180.499 24.24 179.459 23.92C178.446 23.5733 177.286 22.7467 175.979 21.44L173.099 18.56C171.926 17.36 170.633 16.48 169.219 15.92C167.833 15.36 166.086 15.08 163.979 15.08H162.739V24H157.459V3.68L157.059 0.439998H174.779C176.486 0.439998 177.819 0.666665 178.779 1.12C179.766 1.57333 180.486 2.17333 180.939 2.92C181.419 3.64 181.726 4.41333 181.859 5.24C181.993 6.06667 182.059 6.85333 182.059 7.6V8.36C182.059 8.94667 181.979 9.6 181.819 10.32C181.659 11.04 181.353 11.7467 180.899 12.44C180.446 13.1333 179.793 13.72 178.939 14.2C178.113 14.68 177.019 14.96 175.659 15.04C176.006 15.2267 176.446 15.52 176.979 15.92C177.513 16.2933 178.059 16.7067 178.619 17.16C179.206 17.6133 179.739 18.0267 180.219 18.4C180.699 18.7733 181.073 19.04 181.339 19.2C182.299 19.76 183.153 20.1467 183.899 20.36C184.646 20.5733 185.259 20.6933 185.739 20.72C186.219 20.7467 186.499 20.76 186.579 20.76L185.779 24C185.539 24.08 185.139 24.16 184.579 24.24C184.019 24.3467 183.366 24.4 182.619 24.4ZM168.739 11.44C169.753 11.44 170.659 11.4267 171.459 11.4C172.259 11.3467 172.979 11.2933 173.619 11.24C174.793 11.1067 175.606 10.7867 176.059 10.28C176.539 9.74667 176.779 9.06667 176.779 8.24V7.32C176.779 6.46667 176.553 5.74667 176.099 5.16C175.646 4.57333 174.833 4.28 173.659 4.28H162.739V11.24C163.913 11.32 164.993 11.3733 165.979 11.4C166.966 11.4267 167.886 11.44 168.739 11.44ZM194.664 24C192.851 24 191.518 23.92 190.664 23.76C189.811 23.6 189.384 23.4133 189.384 23.2L190.984 19.72C191.598 19.8267 193.118 19.9333 195.544 20.04C197.998 20.12 201.358 20.16 205.624 20.16H206.384C207.531 20.16 208.344 19.96 208.824 19.56C209.304 19.1333 209.544 18.4267 209.544 17.44V16.64C209.544 15.7067 209.344 15.04 208.944 14.64C208.571 14.24 207.718 14.04 206.384 14.04H197.104C194.411 14.04 192.451 13.5467 191.224 12.56C189.998 11.5467 189.384 9.90667 189.384 7.64V7C189.384 5.82667 189.598 4.74667 190.024 3.76C190.478 2.77333 191.238 1.98667 192.304 1.4C193.371 0.786667 194.838 0.48 196.704 0.48H207.584C209.398 0.48 210.864 0.573333 211.984 0.759999C213.104 0.946666 213.664 1.14667 213.664 1.36L212.864 4.72C212.171 4.64 210.598 4.56 208.144 4.48C205.691 4.37333 202.398 4.32 198.264 4.32L197.824 4.28C196.598 4.28 195.771 4.53333 195.344 5.04C194.918 5.52 194.691 6.13333 194.664 6.88V7.56C194.664 8.44 194.904 9.10667 195.384 9.56C195.891 9.98667 196.718 10.2 197.864 10.2H206.744C208.451 10.2 209.904 10.3733 211.104 10.72C212.304 11.0667 213.224 11.7067 213.864 12.64C214.504 13.5467 214.824 14.8933 214.824 16.68V17.32C214.824 19.32 214.304 20.9333 213.264 22.16C212.251 23.3867 210.478 24 207.944 24H194.664Z" fill="white"/>
</svg>
