<svg width="219" height="24" viewBox="0 0 219 24" fill="none" xmlns="http://www.w3.org/2000/svg">
<path d="M8.12 24C6.22667 24 4.74667 23.7333 3.68 23.2C2.61333 22.6667 1.86667 21.8667 1.44 20.8C1.01333 19.7333 0.8 18.4133 0.8 16.84V7.92C0.8 5.36 1.37333 3.48 2.52 2.28C3.66667 1.05333 5.53333 0.439998 8.12 0.439998H20.16C22 0.439998 23.4 0.546665 24.36 0.759999C25.3467 0.946666 25.84 1.14667 25.84 1.36L25.04 4.68C24.5867 4.6 23.24 4.52 21 4.44C18.7867 4.33333 15.56 4.28 11.32 4.28H9.28C7.14667 4.28 6.08 5.22667 6.08 7.12V17.32C6.08 18.2267 6.30667 18.9333 6.76 19.44C7.24 19.92 8.08 20.16 9.28 20.16H10.92C15.3467 20.16 18.7733 20.12 21.2 20.04C23.6533 19.9333 25.1733 19.8267 25.76 19.72L27.4 22.36C27.4 22.4933 27.1733 22.6933 26.72 22.96C26.2933 23.2267 25.4933 23.4667 24.32 23.68C23.1467 23.8933 21.4533 24 19.24 24H8.12ZM38.3153 24C36.4486 24 34.982 23.7333 33.9153 23.2C32.8486 22.6667 32.0886 21.8667 31.6353 20.8C31.2086 19.7333 30.9953 18.4133 30.9953 16.84V7.6C30.9953 6.05333 31.2086 4.76 31.6353 3.72C32.062 2.65333 32.8086 1.85333 33.8753 1.32C34.942 0.76 36.422 0.48 38.3153 0.48H49.9953C51.862 0.48 53.3153 0.76 54.3553 1.32C55.422 1.85333 56.1686 2.65333 56.5953 3.72C57.0486 4.76 57.2753 6.05333 57.2753 7.6V16.84C57.2753 19.1867 56.7553 20.9733 55.7153 22.2C54.6753 23.4 52.7686 24 49.9953 24H38.3153ZM39.4753 20.16H48.8753C49.862 20.16 50.622 19.9067 51.1553 19.4C51.7153 18.8933 51.9953 18.2 51.9953 17.32V7.12C51.9953 6.34667 51.7153 5.69333 51.1553 5.16C50.5953 4.6 49.8353 4.32 48.8753 4.32H39.4753C38.5153 4.32 37.742 4.57333 37.1553 5.08C36.5686 5.58667 36.2753 6.26667 36.2753 7.12V17.32C36.2753 18.2267 36.5553 18.9333 37.1153 19.44C37.702 19.92 38.4886 20.16 39.4753 20.16ZM63.6703 24V3.68L63.2703 0.48H69.3503L78.3903 16.48L87.7503 0.48H93.1503V24H87.8703V9.08H87.4303L85.8703 12.56L80.8303 21.6H75.9903L70.9503 12.56L69.3503 9.08H68.9503V24H63.6703ZM99.9594 24V3.68L99.5594 0.439998H117.279C118.986 0.439998 120.319 0.666665 121.279 1.12C122.266 1.57333 122.986 2.17333 123.439 2.92C123.919 3.64 124.226 4.41333 124.359 5.24C124.493 6.06667 124.559 6.85333 124.559 7.6V9.96C124.559 10.5733 124.466 11.2667 124.279 12.04C124.093 12.7867 123.746 13.52 123.239 14.24C122.733 14.9333 121.999 15.52 121.039 16C120.079 16.4533 118.826 16.68 117.279 16.68H113.199C111.519 16.68 109.946 16.64 108.479 16.56C107.039 16.48 105.959 16.4133 105.239 16.36V24H99.9594ZM105.239 12.84H116.119C117.319 12.84 118.146 12.5467 118.599 11.96C119.053 11.3733 119.279 10.6667 119.279 9.84V7.32C119.279 6.46667 119.053 5.74667 118.599 5.16C118.146 4.57333 117.333 4.28 116.159 4.28H105.239V12.84ZM124.562 24L136.283 0.48H144.163L155.843 24H149.683L147.323 18.92H133.003L130.403 24H124.562ZM134.443 15H145.843L140.363 4.08H139.963L134.443 15ZM159.452 24V3.68L159.052 0.48H164.812L178.412 14.72L179.972 16.88H180.412V0.48H185.692V24H180.612L166.692 9.52L165.132 7.64H164.732V24H159.452ZM200.938 24V14.24L189.298 0.48H195.698L201.618 7.96L203.458 10.44H203.858L205.698 7.96L211.618 0.48H218.018L216.458 2.88L206.218 14.4V24H200.938Z" fill="white"/>
</svg>
