<svg width="130" height="26" viewBox="0 0 130 26" fill="none" xmlns="http://www.w3.org/2000/svg">
<path fill-rule="evenodd" clip-rule="evenodd" d="M20.515 0.459991V10.296H6.08899V0.459991H0.981018V25.204H6.08899V15.127H20.515V25.204H25.622V0.459991H20.515ZM62.446 0.459991H56.648L48.642 11.227L40.635 0.459991H34.561L45.985 15.921V25.206H51.091V15.921L62.446 0.459991ZM94.921 4.04901C94.921 1.702 93.678 0.459991 91.332 0.459991H70.175V25.203H91.332C93.678 25.203 94.921 23.961 94.921 21.614V15.161C94.921 13.815 93.817 12.711 92.435 12.711C93.817 12.711 94.921 11.605 94.921 10.261V4.04901ZM89.849 10.468H75.249V4.98001H89.849V10.468ZM89.849 20.684H75.249V14.919H89.849V20.684ZM109.864 4.98099H129.157V0.459991H104.758V25.205H129.157V20.685H109.864V14.887H128.638V10.365H109.864V4.98099Z" fill="white"/>
</svg>
