<svg width="253" height="25" viewBox="0 0 253 25" fill="none" xmlns="http://www.w3.org/2000/svg">
<path d="M0.2 24V0.48H5.48V24H0.2ZM12.2797 24V3.68L11.8797 0.48H17.6397L31.2397 14.72L32.7997 16.88H33.2397V0.48H38.5197V24H33.4397L19.5197 9.52L17.9597 7.64H17.5597V24H12.2797ZM53.2866 24L42.1266 0.52H47.7266L55.2466 16.72L56.3266 19.6H56.6866L57.7266 16.72L65.3266 0.52H70.7666L70.1266 2.92L59.6866 24H53.2866ZM74.3797 24V0.48H99.2597V4.32H79.6597V9.84H94.6197V13.8H79.6597V20.16H99.4197L101.02 23.56C101.02 23.6667 100.66 23.7733 99.9397 23.88C99.2197 23.96 97.9797 24 96.2197 24H74.3797ZM109.485 24C107.671 24 106.338 23.92 105.485 23.76C104.631 23.6 104.205 23.4133 104.205 23.2L105.805 19.72C106.418 19.8267 107.938 19.9333 110.365 20.04C112.818 20.12 116.178 20.16 120.445 20.16H121.205C122.351 20.16 123.165 19.96 123.645 19.56C124.125 19.1333 124.365 18.4267 124.365 17.44V16.64C124.365 15.7067 124.165 15.04 123.765 14.64C123.391 14.24 122.538 14.04 121.205 14.04H111.925C109.231 14.04 107.271 13.5467 106.045 12.56C104.818 11.5467 104.205 9.90667 104.205 7.64V7C104.205 5.82667 104.418 4.74667 104.845 3.76C105.298 2.77333 106.058 1.98667 107.125 1.4C108.191 0.786667 109.658 0.48 111.525 0.48H122.405C124.218 0.48 125.685 0.573333 126.805 0.759999C127.925 0.946666 128.485 1.14667 128.485 1.36L127.685 4.72C126.991 4.64 125.418 4.56 122.965 4.48C120.511 4.37333 117.218 4.32 113.085 4.32L112.645 4.28C111.418 4.28 110.591 4.53333 110.165 5.04C109.738 5.52 109.511 6.13333 109.485 6.88V7.56C109.485 8.44 109.725 9.10667 110.205 9.56C110.711 9.98667 111.538 10.2 112.685 10.2H121.565C123.271 10.2 124.725 10.3733 125.925 10.72C127.125 11.0667 128.045 11.7067 128.685 12.64C129.325 13.5467 129.645 14.8933 129.645 16.68V17.32C129.645 19.32 129.125 20.9333 128.085 22.16C127.071 23.3867 125.298 24 122.765 24H109.485ZM143.279 24L143.239 4.28H132.839V0.439998H158.999V4.28H148.559V24H143.279ZM169.933 24C168.066 24 166.599 23.7333 165.533 23.2C164.466 22.6667 163.706 21.8667 163.253 20.8C162.826 19.7333 162.613 18.4133 162.613 16.84V7.6C162.613 6.05333 162.826 4.76 163.253 3.72C163.679 2.65333 164.426 1.85333 165.493 1.32C166.559 0.76 168.039 0.48 169.933 0.48H181.613C183.479 0.48 184.933 0.76 185.973 1.32C187.039 1.85333 187.786 2.65333 188.213 3.72C188.666 4.76 188.893 6.05333 188.893 7.6V16.84C188.893 19.1867 188.373 20.9733 187.333 22.2C186.293 23.4 184.386 24 181.613 24H169.933ZM171.093 20.16H180.493C181.479 20.16 182.239 19.9067 182.773 19.4C183.333 18.8933 183.613 18.2 183.613 17.32V7.12C183.613 6.34667 183.333 5.69333 182.773 5.16C182.213 4.6 181.453 4.32 180.493 4.32H171.093C170.133 4.32 169.359 4.57333 168.773 5.08C168.186 5.58667 167.893 6.26667 167.893 7.12V17.32C167.893 18.2267 168.173 18.9333 168.733 19.44C169.319 19.92 170.106 20.16 171.093 20.16ZM220.448 24.4C219.381 24.4 218.328 24.24 217.288 23.92C216.274 23.5733 215.114 22.7467 213.808 21.44L210.928 18.56C209.754 17.36 208.461 16.48 207.048 15.92C205.661 15.36 203.914 15.08 201.808 15.08H200.568V24H195.288V3.68L194.888 0.439998H212.608C214.314 0.439998 215.648 0.666665 216.608 1.12C217.594 1.57333 218.314 2.17333 218.768 2.92C219.248 3.64 219.554 4.41333 219.688 5.24C219.821 6.06667 219.888 6.85333 219.888 7.6V8.36C219.888 8.94667 219.808 9.6 219.648 10.32C219.488 11.04 219.181 11.7467 218.728 12.44C218.274 13.1333 217.621 13.72 216.768 14.2C215.941 14.68 214.848 14.96 213.488 15.04C213.834 15.2267 214.274 15.52 214.808 15.92C215.341 16.2933 215.888 16.7067 216.448 17.16C217.034 17.6133 217.568 18.0267 218.048 18.4C218.528 18.7733 218.901 19.04 219.168 19.2C220.128 19.76 220.981 20.1467 221.728 20.36C222.474 20.5733 223.088 20.6933 223.568 20.72C224.048 20.7467 224.328 20.76 224.408 20.76L223.608 24C223.368 24.08 222.968 24.16 222.408 24.24C221.848 24.3467 221.194 24.4 220.448 24.4ZM206.568 11.44C207.581 11.44 208.488 11.4267 209.288 11.4C210.088 11.3467 210.808 11.2933 211.448 11.24C212.621 11.1067 213.434 10.7867 213.888 10.28C214.368 9.74667 214.608 9.06667 214.608 8.24V7.32C214.608 6.46667 214.381 5.74667 213.928 5.16C213.474 4.57333 212.661 4.28 211.488 4.28H200.568V11.24C201.741 11.32 202.821 11.3733 203.808 11.4C204.794 11.4267 205.714 11.44 206.568 11.44ZM232.493 24C230.679 24 229.346 23.92 228.493 23.76C227.639 23.6 227.213 23.4133 227.213 23.2L228.813 19.72C229.426 19.8267 230.946 19.9333 233.373 20.04C235.826 20.12 239.186 20.16 243.453 20.16H244.213C245.359 20.16 246.172 19.96 246.653 19.56C247.133 19.1333 247.373 18.4267 247.373 17.44V16.64C247.373 15.7067 247.173 15.04 246.773 14.64C246.399 14.24 245.546 14.04 244.213 14.04H234.933C232.239 14.04 230.279 13.5467 229.053 12.56C227.826 11.5467 227.213 9.90667 227.213 7.64V7C227.213 5.82667 227.426 4.74667 227.853 3.76C228.306 2.77333 229.066 1.98667 230.133 1.4C231.199 0.786667 232.666 0.48 234.533 0.48H245.413C247.226 0.48 248.693 0.573333 249.812 0.759999C250.933 0.946666 251.493 1.14667 251.493 1.36L250.693 4.72C249.999 4.64 248.426 4.56 245.973 4.48C243.519 4.37333 240.226 4.32 236.093 4.32L235.653 4.28C234.426 4.28 233.599 4.53333 233.173 5.04C232.746 5.52 232.519 6.13333 232.493 6.88V7.56C232.493 8.44 232.733 9.10667 233.213 9.56C233.719 9.98667 234.546 10.2 235.693 10.2H244.573C246.279 10.2 247.733 10.3733 248.933 10.72C250.133 11.0667 251.053 11.7067 251.693 12.64C252.333 13.5467 252.653 14.8933 252.653 16.68V17.32C252.653 19.32 252.133 20.9333 251.093 22.16C250.079 23.3867 248.306 24 245.773 24H232.493Z" fill="white"/>
</svg>
