<svg width="133" height="24" viewBox="0 0 133 24" fill="none" xmlns="http://www.w3.org/2000/svg">
<path d="M0.6 24V3.68L0.2 0.48H5.96L19.56 14.72L21.12 16.88H21.56V0.48H26.84V24H21.76L7.84 9.52L6.28 7.64H5.88V24H0.6ZM33.2469 24V0.48H58.1269V4.32H38.5269V9.84H53.4869V13.8H38.5269V20.16H58.2869L59.8869 23.56C59.8869 23.6667 59.5269 23.7733 58.8069 23.88C58.0869 23.96 56.8469 24 55.0869 24H33.2469ZM69.6719 24L61.0719 0.52H66.6719L72.3119 15.88L73.2319 19.76H73.6319L74.1519 17.04L79.4719 0.52H86.2719L91.8319 17.04L92.5519 19.76H92.9519L93.8719 15.88L99.1119 0.52H104.712L104.312 2.92L96.0719 24H89.2719L83.8319 8.28L83.0319 5.72H82.6319L81.8719 8.28L76.4719 24H69.6719ZM112.805 24C110.992 24 109.658 23.92 108.805 23.76C107.952 23.6 107.525 23.4133 107.525 23.2L109.125 19.72C109.738 19.8267 111.258 19.9333 113.685 20.04C116.138 20.12 119.498 20.16 123.765 20.16H124.525C125.672 20.16 126.485 19.96 126.965 19.56C127.445 19.1333 127.685 18.4267 127.685 17.44V16.64C127.685 15.7067 127.485 15.04 127.085 14.64C126.712 14.24 125.858 14.04 124.525 14.04H115.245C112.552 14.04 110.592 13.5467 109.365 12.56C108.138 11.5467 107.525 9.90667 107.525 7.64V7C107.525 5.82667 107.738 4.74667 108.165 3.76C108.618 2.77333 109.378 1.98667 110.445 1.4C111.512 0.786667 112.978 0.48 114.845 0.48H125.725C127.538 0.48 129.005 0.573333 130.125 0.759999C131.245 0.946666 131.805 1.14667 131.805 1.36L131.005 4.72C130.312 4.64 128.738 4.56 126.285 4.48C123.832 4.37333 120.538 4.32 116.405 4.32L115.965 4.28C114.738 4.28 113.912 4.53333 113.485 5.04C113.058 5.52 112.832 6.13333 112.805 6.88V7.56C112.805 8.44 113.045 9.10667 113.525 9.56C114.032 9.98667 114.858 10.2 116.005 10.2H124.885C126.592 10.2 128.045 10.3733 129.245 10.72C130.445 11.0667 131.365 11.7067 132.005 12.64C132.645 13.5467 132.965 14.8933 132.965 16.68V17.32C132.965 19.32 132.445 20.9333 131.405 22.16C130.392 23.3867 128.618 24 126.085 24H112.805Z" fill="white"/>
</svg>
