<svg width="40" height="40" viewBox="0 0 40 40" fill="none" xmlns="http://www.w3.org/2000/svg">
<path d="M16 25.2651V14.7334C16.0002 14.6016 16.0371 14.4724 16.1068 14.3591C16.1766 14.2459 16.2765 14.1528 16.3962 14.0897C16.516 14.0266 16.651 13.9958 16.7873 14.0005C16.9236 14.0051 17.0561 14.0452 17.1709 14.1163L25.6499 19.3807C25.7572 19.4472 25.8456 19.5387 25.9067 19.6467C25.9679 19.7548 26 19.8761 26 19.9993C26 20.1225 25.9679 20.2437 25.9067 20.3518C25.8456 20.4599 25.7572 20.5514 25.6499 20.6178L17.1709 25.8837C17.0561 25.9548 16.9236 25.9949 16.7873 25.9995C16.651 26.0042 16.516 25.9734 16.3962 25.9103C16.2765 25.8472 16.1766 25.7541 16.1068 25.6409C16.0371 25.5276 16.0002 25.3984 16 25.2666V25.2651Z" fill="white"/>
<rect x="0.5" y="0.5" width="39" height="39" rx="19.5" stroke="white"/>
</svg>
