<svg width="243" height="105" viewBox="0 0 243 105" fill="none" xmlns="http://www.w3.org/2000/svg">
<path d="M9 24L0.4 0.52H6L11.64 15.88L12.56 19.76H12.96L13.48 17.04L18.8 0.52H25.6L31.16 17.04L31.88 19.76H32.28L33.2 15.88L38.44 0.52H44.04L43.64 2.92L35.4 24H28.6L23.16 8.28L22.36 5.72H21.96L21.2 8.28L15.8 24H9ZM47.6531 24V0.48H72.5331V4.32H52.9331V9.84H67.8931V13.8H52.9331V20.16H72.6931L74.2931 23.56C74.2931 23.6667 73.9331 23.7733 73.2131 23.88C72.4931 23.96 71.2531 24 69.4931 24H47.6531ZM3.2 64V40.44H20.6C23.1067 40.44 24.9333 40.9467 26.08 41.96C27.2267 42.9467 27.8 44.1467 27.8 45.56V46.76C27.8 47.8533 27.56 48.76 27.08 49.48C26.6267 50.1733 26.1333 50.6667 25.6 50.96C26.7733 51.3333 27.7067 51.9867 28.4 52.92C29.0933 53.8267 29.44 55.0267 29.44 56.52V57.24C29.44 58.04 29.3467 58.84 29.16 59.64C28.9733 60.44 28.6133 61.1733 28.08 61.84C27.5733 62.48 26.84 63 25.88 63.4C24.9467 63.8 23.72 64 22.2 64H3.2ZM8.48 49.88H19.76C20.6933 49.9067 21.3867 49.68 21.84 49.2C22.2933 48.6933 22.52 48.0667 22.52 47.32V46.92C22.52 46.3067 22.3067 45.72 21.88 45.16C21.4533 44.5733 20.6533 44.28 19.48 44.28H8.48V49.88ZM8.48 60.16H21.08C22.0933 60.16 22.8533 59.9067 23.36 59.4C23.8933 58.8933 24.16 58.2 24.16 57.32V56.6C24.16 55.7733 23.8533 55.1067 23.24 54.6C22.6267 54.0667 21.6133 53.8 20.2 53.8H8.48V60.16ZM35.0359 64V40.48H59.9159V44.32H40.3159V49.84H55.2759V53.8H40.3159V60.16H60.0759L61.6759 63.56C61.6759 63.6667 61.3159 63.7733 60.5959 63.88C59.8759 63.96 58.6359 64 56.8759 64H35.0359ZM65.6609 64L66.0609 60.8V40.48H71.3409V60.16H87.9009L89.5009 63.56C89.5009 63.6667 89.1409 63.7733 88.4209 63.88C87.7009 63.96 86.4609 64 84.7009 64H65.6609ZM93.0828 64V40.48H98.3628V64H93.0828ZM104.763 64V40.48H129.643V44.32H110.043V49.84H125.003V53.8H110.043V60.16H129.803L131.403 63.56C131.403 63.6667 131.043 63.7733 130.323 63.88C129.603 63.96 128.363 64 126.603 64H104.763ZM143.748 64L132.588 40.52H138.188L145.708 56.72L146.788 59.6H147.148L148.188 56.72L155.788 40.52H161.228L160.588 42.92L150.148 64H143.748ZM164.841 64V40.48H189.721V44.32H170.121V49.84H185.081V53.8H170.121V60.16H189.881L191.481 63.56C191.481 63.6667 191.121 63.7733 190.401 63.88C189.681 63.96 188.441 64 186.681 64H164.841ZM204.255 64V40.48H209.535V64H204.255ZM216.334 64V43.68L215.934 40.48H221.694L235.294 54.72L236.854 56.88H237.294V40.48H242.574V64H237.494L223.574 49.52L222.014 47.64H221.614V64H216.334ZM3.6 104V83.68L3.2 80.48H9.28L18.32 96.48L27.68 80.48H33.08V104H27.8V89.08H27.36L25.8 92.56L20.76 101.6H15.92L10.88 92.56L9.28 89.08H8.88V104H3.6ZM45.4091 104.4C42.9824 104.4 41.2891 103.747 40.3291 102.44C39.3691 101.133 38.8891 99.4 38.8891 97.24V80.48H44.1691V97.4C44.1691 98.6533 44.4757 99.4933 45.0891 99.92C45.7024 100.347 46.4624 100.56 47.3691 100.56H55.8491C56.7024 100.56 57.4491 100.347 58.0891 99.92C58.7291 99.4667 59.0491 98.6267 59.0491 97.4V80.48H64.3291V97.24C64.3291 98.68 64.1291 99.9333 63.7291 101C63.3291 102.067 62.6624 102.907 61.7291 103.52C60.7957 104.107 59.5024 104.4 57.8491 104.4H45.4091ZM74.5941 104C72.7807 104 71.4474 103.92 70.5941 103.76C69.7407 103.6 69.3141 103.413 69.3141 103.2L70.9141 99.72C71.5274 99.8267 73.0474 99.9333 75.4741 100.04C77.9274 100.12 81.2874 100.16 85.5541 100.16H86.3141C87.4607 100.16 88.2741 99.96 88.7541 99.56C89.2341 99.1333 89.4741 98.4267 89.4741 97.44V96.64C89.4741 95.7067 89.2741 95.04 88.8741 94.64C88.5007 94.24 87.6474 94.04 86.3141 94.04H77.0341C74.3407 94.04 72.3807 93.5467 71.1541 92.56C69.9274 91.5467 69.3141 89.9067 69.3141 87.64V87C69.3141 85.8267 69.5274 84.7467 69.9541 83.76C70.4074 82.7733 71.1674 81.9867 72.2341 81.4C73.3007 80.7867 74.7674 80.48 76.6341 80.48H87.5141C89.3274 80.48 90.7941 80.5733 91.9141 80.76C93.0341 80.9467 93.5941 81.1467 93.5941 81.36L92.7941 84.72C92.1007 84.64 90.5274 84.56 88.0741 84.48C85.6207 84.3733 82.3274 84.32 78.1941 84.32L77.7541 84.28C76.5274 84.28 75.7007 84.5333 75.2741 85.04C74.8474 85.52 74.6207 86.1333 74.5941 86.88V87.56C74.5941 88.44 74.8341 89.1067 75.3141 89.56C75.8207 89.9867 76.6474 90.2 77.7941 90.2H86.6741C88.3807 90.2 89.8341 90.3733 91.0341 90.72C92.2341 91.0667 93.1541 91.7067 93.7941 92.64C94.4341 93.5467 94.7541 94.8933 94.7541 96.68V97.32C94.7541 99.32 94.2341 100.933 93.1941 102.16C92.1807 103.387 90.4074 104 87.8741 104H74.5941ZM100.348 104V80.48H105.628V104H100.348ZM118.948 104C117.055 104 115.575 103.733 114.508 103.2C113.441 102.667 112.695 101.867 112.268 100.8C111.841 99.7333 111.628 98.4133 111.628 96.84V87.92C111.628 85.36 112.201 83.48 113.348 82.28C114.495 81.0533 116.361 80.44 118.948 80.44H130.988C132.828 80.44 134.228 80.5467 135.188 80.76C136.175 80.9467 136.668 81.1467 136.668 81.36L135.868 84.68C135.415 84.6 134.068 84.52 131.828 84.44C129.615 84.3333 126.388 84.28 122.148 84.28H120.108C117.975 84.28 116.908 85.2267 116.908 87.12V97.32C116.908 98.2267 117.135 98.9333 117.588 99.44C118.068 99.92 118.908 100.16 120.108 100.16H121.748C126.175 100.16 129.601 100.12 132.028 100.04C134.481 99.9333 136.001 99.8267 136.588 99.72L138.228 102.36C138.228 102.493 138.001 102.693 137.548 102.96C137.121 103.227 136.321 103.467 135.148 103.68C133.975 103.893 132.281 104 130.068 104H118.948Z" fill="black"/>
</svg>
