<svg width="296" height="25" viewBox="0 0 296 25" fill="none" xmlns="http://www.w3.org/2000/svg">
<path d="M9 24L0.4 0.52H6L11.64 15.88L12.56 19.76H12.96L13.48 17.04L18.8 0.52H25.6L31.16 17.04L31.88 19.76H32.28L33.2 15.88L38.44 0.52H44.04L43.64 2.92L35.4 24H28.6L23.16 8.28L22.36 5.72H21.96L21.2 8.28L15.8 24H9ZM47.6531 24V0.48H52.9331V10.24H68.6131V0.48H73.8931V24H68.6131V14.08H52.9331V24H47.6531ZM87.2294 24C85.3627 24 83.896 23.7333 82.8294 23.2C81.7627 22.6667 81.0027 21.8667 80.5494 20.8C80.1227 19.7333 79.9094 18.4133 79.9094 16.84V7.6C79.9094 6.05333 80.1227 4.76 80.5494 3.72C80.976 2.65333 81.7227 1.85333 82.7894 1.32C83.856 0.76 85.336 0.48 87.2294 0.48H98.9094C100.776 0.48 102.229 0.76 103.269 1.32C104.336 1.85333 105.083 2.65333 105.509 3.72C105.963 4.76 106.189 6.05333 106.189 7.6V16.84C106.189 19.1867 105.669 20.9733 104.629 22.2C103.589 23.4 101.683 24 98.9094 24H87.2294ZM88.3894 20.16H97.7894C98.776 20.16 99.536 19.9067 100.069 19.4C100.629 18.8933 100.909 18.2 100.909 17.32V7.12C100.909 6.34667 100.629 5.69333 100.069 5.16C99.5094 4.6 98.7494 4.32 97.7894 4.32H88.3894C87.4294 4.32 86.656 4.57333 86.0694 5.08C85.4827 5.58667 85.1894 6.26667 85.1894 7.12V17.32C85.1894 18.2267 85.4694 18.9333 86.0294 19.44C86.616 19.92 87.4027 20.16 88.3894 20.16ZM126.773 24L118.173 0.52H123.773L129.413 15.88L130.333 19.76H130.733L131.253 17.04L136.573 0.52H143.373L148.933 17.04L149.653 19.76H150.053L150.973 15.88L156.213 0.52H161.813L161.413 2.92L153.173 24H146.373L140.933 8.28L140.133 5.72H139.733L138.973 8.28L133.573 24H126.773ZM165.427 24V0.48H190.307V4.32H170.707V9.84H185.667V13.8H170.707V20.16H190.467L192.067 23.56C192.067 23.6667 191.707 23.7733 190.987 23.88C190.267 23.96 189.027 24 187.267 24H165.427ZM201.641 24L213.361 0.48H221.241L232.921 24H226.761L224.401 18.92H210.081L207.481 24H201.641ZM211.521 15H222.921L217.441 4.08H217.041L211.521 15ZM261.69 24.4C260.623 24.4 259.57 24.24 258.53 23.92C257.516 23.5733 256.356 22.7467 255.05 21.44L252.17 18.56C250.996 17.36 249.703 16.48 248.29 15.92C246.903 15.36 245.156 15.08 243.05 15.08H241.81V24H236.53V3.68L236.13 0.439998H253.85C255.556 0.439998 256.89 0.666665 257.85 1.12C258.836 1.57333 259.556 2.17333 260.01 2.92C260.49 3.64 260.796 4.41333 260.93 5.24C261.063 6.06667 261.13 6.85333 261.13 7.6V8.36C261.13 8.94667 261.05 9.6 260.89 10.32C260.73 11.04 260.423 11.7467 259.97 12.44C259.516 13.1333 258.863 13.72 258.01 14.2C257.183 14.68 256.09 14.96 254.73 15.04C255.076 15.2267 255.516 15.52 256.05 15.92C256.583 16.2933 257.13 16.7067 257.69 17.16C258.276 17.6133 258.81 18.0267 259.29 18.4C259.77 18.7733 260.143 19.04 260.41 19.2C261.37 19.76 262.223 20.1467 262.97 20.36C263.716 20.5733 264.33 20.6933 264.81 20.72C265.29 20.7467 265.57 20.76 265.65 20.76L264.85 24C264.61 24.08 264.21 24.16 263.65 24.24C263.09 24.3467 262.436 24.4 261.69 24.4ZM247.81 11.44C248.823 11.44 249.73 11.4267 250.53 11.4C251.33 11.3467 252.05 11.2933 252.69 11.24C253.863 11.1067 254.676 10.7867 255.13 10.28C255.61 9.74667 255.85 9.06667 255.85 8.24V7.32C255.85 6.46667 255.623 5.74667 255.17 5.16C254.716 4.57333 253.903 4.28 252.73 4.28H241.81V11.24C242.983 11.32 244.063 11.3733 245.05 11.4C246.036 11.4267 246.956 11.44 247.81 11.44ZM269.255 24V0.48H294.135V4.32H274.535V9.84H289.495V13.8H274.535V20.16H294.295L295.895 23.56C295.895 23.6667 295.535 23.7733 294.815 23.88C294.095 23.96 292.855 24 291.095 24H269.255Z" fill="black"/>
</svg>
